<svg width="680" height="680" viewBox="0 0 680 680" role="img" xmlns="http://www.w3.org/2000/svg">
  <title>CareerBoost App Icon</title>
  <desc>A professional app icon featuring a resume document, magnifying glass for job search, and speech bubble for mock interviews.</desc>

  <style>
    .bg-circle { fill: #1A1F3C; }
  </style>

  <circle cx="340" cy="340" r="300" class="bg-circle"/>
  <circle cx="340" cy="340" r="295" fill="none" stroke="#2A3160" stroke-width="2"/>

  <!-- RESUME DOCUMENT -->
  <rect x="184" y="188" width="198" height="252" rx="14" fill="rgba(0,0,0,0.18)"/>
  <rect x="178" y="180" width="198" height="252" rx="14" fill="#FFFFFF"/>
  <rect x="178" y="180" width="198" height="40" rx="14" fill="#4F6EF7"/>
  <rect x="178" y="200" width="198" height="20" fill="#4F6EF7"/>

  <circle cx="222" cy="204" r="18" fill="#7B96FF"/>
  <circle cx="222" cy="199" r="7" fill="#FFFFFF" opacity="0.9"/>
  <ellipse cx="222" cy="215" rx="11" ry="7" fill="#FFFFFF" opacity="0.9"/>

  <rect x="248" y="196" width="80" height="8" rx="4" fill="#C5CFFF"/>
  <rect x="248" y="210" width="52" height="6" rx="3" fill="#8FA0E8"/>

  <rect x="200" y="240" width="150" height="7" rx="3.5" fill="#E2E6FF"/>
  <rect x="200" y="256" width="130" height="6" rx="3" fill="#C5CFFF"/>
  <rect x="200" y="270" width="140" height="6" rx="3" fill="#C5CFFF"/>
  <rect x="200" y="284" width="110" height="6" rx="3" fill="#C5CFFF"/>
  <rect x="200" y="300" width="150" height="1.5" rx="1" fill="#E2E6FF"/>
  <rect x="200" y="312" width="150" height="7" rx="3.5" fill="#E2E6FF"/>
  <rect x="200" y="328" width="120" height="6" rx="3" fill="#C5CFFF"/>
  <rect x="200" y="342" width="135" height="6" rx="3" fill="#C5CFFF"/>
  <rect x="200" y="356" width="95" height="6" rx="3" fill="#C5CFFF"/>

  <!-- Checkmark badge -->
  <circle cx="356" cy="186" r="18" fill="#2ECC8A"/>
  <polyline points="347,186 353,193 367,178" fill="none" stroke="#FFFFFF" stroke-width="3" stroke-linecap="round" stroke-linejoin="round"/>

  <!-- MAGNIFYING GLASS -->
  <circle cx="393" cy="352" r="56" fill="rgba(0,0,0,0.2)"/>
  <circle cx="389" cy="347" r="56" fill="#1A2770"/>
  <circle cx="389" cy="347" r="46" fill="#2A3890"/>
  <circle cx="389" cy="347" r="36" fill="#4F6EF7"/>
  <circle cx="389" cy="347" r="28" fill="#FFFFFF" opacity="0.12"/>
  <circle cx="389" cy="347" r="26" fill="none" stroke="#7B96FF" stroke-width="3"/>

  <rect x="376" y="340" width="26" height="18" rx="3" fill="#FFFFFF"/>
  <rect x="382" y="336" width="14" height="6" rx="2" fill="none" stroke="#FFFFFF" stroke-width="2.2"/>
  <rect x="375.5" y="349" width="27" height="1.5" rx="1" fill="#4F6EF7" opacity="0.5"/>

  <line x1="409" y1="368" x2="432" y2="396" stroke="#3A52C8" stroke-width="10" stroke-linecap="round"/>
  <line x1="409" y1="368" x2="432" y2="396" stroke="#7B96FF" stroke-width="5" stroke-linecap="round"/>

  <!-- SPEECH BUBBLE -->
  <rect x="244" y="448" width="148" height="90" rx="16" fill="rgba(0,0,0,0.18)"/>
  <rect x="238" y="442" width="148" height="90" rx="16" fill="#2ECC8A"/>
  <polygon points="268,532 252,558 290,532" fill="#2ECC8A"/>

  <rect x="305" y="459" width="14" height="22" rx="7" fill="#FFFFFF"/>
  <path d="M295 476 Q295 492 312 492 Q329 492 329 476" fill="none" stroke="#FFFFFF" stroke-width="2.5" stroke-linecap="round"/>
  <line x1="312" y1="492" x2="312" y2="500" stroke="#FFFFFF" stroke-width="2.5" stroke-linecap="round"/>
  <line x1="305" y1="500" x2="319" y2="500" stroke="#FFFFFF" stroke-width="2.5" stroke-linecap="round"/>

  <line x1="274" y1="468" x2="274" y2="484" stroke="#FFFFFF" stroke-width="2.5" stroke-linecap="round" opacity="0.6"/>
  <line x1="280" y1="463" x2="280" y2="489" stroke="#FFFFFF" stroke-width="2.5" stroke-linecap="round" opacity="0.85"/>
  <line x1="286" y1="468" x2="286" y2="484" stroke="#FFFFFF" stroke-width="2.5" stroke-linecap="round" opacity="0.6"/>
  <line x1="338" y1="468" x2="338" y2="484" stroke="#FFFFFF" stroke-width="2.5" stroke-linecap="round" opacity="0.6"/>
  <line x1="344" y1="463" x2="344" y2="489" stroke="#FFFFFF" stroke-width="2.5" stroke-linecap="round" opacity="0.85"/>
  <line x1="350" y1="468" x2="350" y2="484" stroke="#FFFFFF" stroke-width="2.5" stroke-linecap="round" opacity="0.6"/>

  <!-- SPARKLES -->
  <polygon points="456,230 460,241 472,241 462,248 466,260 456,253 446,260 450,248 440,241 452,241" fill="#F7C94F" opacity="0.85"/>
  <polygon points="176,420 178,427 185,427 180,431 182,438 176,434 170,438 172,431 167,427 174,427" fill="#F7C94F" opacity="0.6"/>
  <polygon points="430,460 432,465 437,465 433,468 435,474 430,470 425,474 427,468 423,465 428,465" fill="#7B96FF" opacity="0.5"/>

  <!-- GROWTH ARC -->
  <defs>
    <marker id="arr-blue" viewBox="0 0 10 10" refX="8" refY="5" markerWidth="5" markerHeight="5" orient="auto-start-reverse">
      <path d="M2 1L8 5L2 9" fill="none" stroke="#4F6EF7" stroke-width="1.8" stroke-linecap="round" stroke-linejoin="round"/>
    </marker>
  </defs>
  <path d="M148 460 Q160 380 220 330" fill="none" stroke="#4F6EF7" stroke-width="2.5" stroke-dasharray="6 5" stroke-linecap="round" opacity="0.45" marker-end="url(#arr-blue)"/>

</svg>
